<?xml version="1.0" encoding="UTF-8"?>
<svg id="Layer_1" data-name="Layer 1" xmlns="http://www.w3.org/2000/svg" viewBox="0 0 576 124.416">
  <g>
    <path d="M169.57,79.329v-31.936h-7.528c-1.579,0-2.429-.85-2.429-2.427v-5.708c0-1.579.85-2.429,2.429-2.429,9.955-.121,10.805-1.093,10.928-14.934,0-1.702.85-2.552,2.429-2.552h3.156c1.579,0,2.429.85,2.429,2.429v15.057h27.927c1.579,0,2.429.85,2.429,2.429v5.708c0,1.577-.85,2.427-2.429,2.427h-27.927v32.908c0,10.928,3.4,14.207,15.543,14.207h12.384c1.579,0,2.429.85,2.429,2.429v5.706c0,1.579-.85,2.429-2.429,2.429h-12.384c-21.978,0-26.957-8.742-26.957-25.743Z"/>
    <path d="M217.618,86.251c0-13.234,5.222-18.82,21.735-20.642l30.115-3.279c2.913-.364,3.886-1.943,3.886-4.856,0-7.771-2.307-9.837-12.507-9.837h-35.337c-1.577,0-2.427-.85-2.427-2.427v-5.951c0-1.579.85-2.429,2.427-2.429h35.58c17.486,0,23.678,6.194,23.678,20.037v45.777c0,1.579-.85,2.429-2.429,2.429h-6.556c-1.579,0-2.429-.85-2.429-2.429v-8.013c-3.158,7.163-7.771,10.442-21.128,10.442h-9.108c-16.272,0-25.5-5.829-25.5-18.822ZM256.839,94.508c12.63,0,16.515-4.372,16.515-15.786v-6.678l-32.179,3.4c-9.714.972-12.021,3.279-12.021,9.837,0,5.949,4.249,9.228,13.964,9.228h13.721Z"/>
    <path d="M294.281,78.115v-14.693c0-17.606,4.858-26.593,25.137-26.593h20.158c18.336,0,24.648,6.922,25.135,24.65,0,1.7-.85,2.55-2.429,2.55h-6.556c-1.579,0-2.429-.85-2.429-2.55-.364-11.414-2.913-13.843-13.964-13.843h-19.672c-11.293,0-13.964,2.672-13.964,14.936v16.515c0,12.507,2.67,15.177,13.964,15.177h19.672c11.291,0,13.721-2.67,13.964-14.084,0-1.702.85-2.552,2.429-2.552h6.556c1.579,0,2.429.85,2.429,2.552-.607,18.336-7.042,24.891-25.135,24.891h-20.158c-20.278,0-25.137-8.864-25.137-26.957Z"/>
    <path d="M379.972,79.329v-31.936h-7.528c-1.579,0-2.429-.85-2.429-2.427v-5.708c0-1.579.85-2.429,2.429-2.429,9.957-.121,10.807-1.093,10.928-14.934,0-1.702.85-2.552,2.429-2.552h3.158c1.577,0,2.427.85,2.427,2.429v15.057h27.929c1.579,0,2.429.85,2.429,2.429v5.708c0,1.577-.85,2.427-2.429,2.427h-27.929v32.908c0,10.928,3.401,14.207,15.543,14.207h12.386c1.579,0,2.429.85,2.429,2.429v5.706c0,1.579-.85,2.429-2.429,2.429h-12.386c-21.978,0-26.957-8.742-26.957-25.743Z"/>
    <path d="M428.181,78.115v-14.693c0-17.606,4.858-26.593,25.137-26.593h20.158c20.278,0,25.135,8.987,25.135,26.593v14.693c0,18.092-4.856,26.957-25.135,26.957h-20.158c-20.278,0-25.137-8.864-25.137-26.957ZM473.233,94.265c11.291,0,13.964-2.67,13.964-15.177v-16.515c0-12.264-2.672-14.936-13.964-14.936h-19.672c-11.293,0-13.964,2.672-13.964,14.936v16.515c0,12.507,2.67,15.177,13.964,15.177h19.672Z"/>
    <path d="M576,63.789v38.98c0,1.579-.85,2.429-2.429,2.429h-6.558c-1.577,0-2.427-.85-2.427-2.429v-39.95c0-12.507-2.672-15.179-13.843-15.179h-17.243c-9.594,0-13.966,2.186-13.966,15.179v39.828c0,1.579-.85,2.429-2.427,2.429h-6.558c-1.579,0-2.429-.85-2.429-2.429v-63.385c0-1.579.85-2.429,2.429-2.429h6.558c1.577,0,2.427.85,2.427,2.429v6.435c2.672-5.949,8.258-8.864,19.308-8.864h12.021c20.278,0,25.137,8.864,25.137,26.957Z"/>
  </g>
  <g>
    <path d="M86.006,65.803h38.411v-19.442h-31.858l27.02-27.02c-3.409-6.065-8.439-11.095-14.504-14.504l-27.02,27.02V0h-19.401v38.452c0,15.082,12.27,27.352,27.352,27.352Z"/>
    <path d="M38.411,58.654H0v19.401h31.858l-27.02,27.02c3.409,6.065,8.439,11.095,14.504,14.504l27.02-27.02v31.858h19.401v-38.411c0-15.082-12.27-27.352-27.352-27.352Z"/>
    <path d="M105.075,119.578c6.065-3.409,11.095-8.439,14.504-14.504l-27.02-27.02h31.858v-8.796h-38.411c-16.988,0-30.808-13.82-30.808-30.808V0h-8.836v31.858L19.342,4.838c-6.065,3.409-11.095,8.439-14.504,14.504l27.02,27.02H0v8.836h38.411c16.988,0,30.808,13.82,30.808,30.808v38.411h8.837v-31.858l27.02,27.02Z"/>
  </g>
</svg>