<?xml version="1.0" encoding="UTF-8"?>
<svg xmlns="http://www.w3.org/2000/svg" viewBox="0 0 124.416 124.416" fill="white">
  <path d="M86.006,65.803h38.411v-19.442h-31.858l27.02-27.02c-3.409-6.065-8.439-11.095-14.504-14.504l-27.02,27.02V0h-19.401v38.452c0,15.082,12.27,27.352,27.352,27.352Z"/>
  <path d="M38.411,58.654H0v19.401h31.858l-27.02,27.02c3.409,6.065,8.439,11.095,14.504,14.504l27.02-27.02v31.858h19.401v-38.411c0-15.082-12.27-27.352-27.352-27.352Z"/>
  <path d="M105.075,119.578c6.065-3.409,11.095-8.439,14.504-14.504l-27.02-27.02h31.858v-8.796h-38.411c-16.988,0-30.808-13.82-30.808-30.808V0h-8.836v31.858L19.342,4.838c-6.065,3.409-11.095,8.439-14.504,14.504l27.02,27.02H0v8.836h38.411c16.988,0,30.808,13.82,30.808,30.808v38.411h8.837v-31.858l27.02,27.02Z"/>
</svg>
